<svg class="hidden" xmlns="http://www.w3.org/2000/svg">

    <symbol viewBox="0 0 30 30" id="facebook">
      <path d="M24,4H6C4.895,4,4,4.895,4,6v18c0,1.105,0.895,2,2,2h10v-9h-3v-3h3v-1.611C16,9.339,17.486,8,20.021,8 
      c1.214,0,1.856,0.09,2.16,0.131V11h-1.729C19.376,11,19,11.568,19,12.718V14h3.154l-0.428,3H19v9h5c1.105,0,2-0.895,2-2V6 
      C26,4.895,25.104,4,24,4z"/>
    </symbol>

    <symbol viewBox="0 0 30 30" id="telegram">
      <path d="M 25.154297 3.984375 C 24.829241 3.998716 24.526384 4.0933979 24.259766 4.2011719 
      C 24.010014 4.3016357 23.055766 4.7109106 21.552734 5.3554688 C 20.048394 6.0005882 18.056479 6.855779 
      15.931641 7.7695312 C 11.681964 9.5970359 6.9042108 11.654169 4.4570312 12.707031 C 4.3650097 12.746607 
      4.0439208 12.849183 3.703125 13.115234 C 3.3623292 13.381286 3 13.932585 3 14.546875 C 3 15.042215 
      3.2360676 15.534319 3.5332031 15.828125 C 3.8303386 16.121931 4.144747 16.267067 4.4140625 16.376953 
      C 5.3912284 16.775666 8.4218473 18.015862 8.9941406 18.25 C 9.195546 18.866983 10.29249 22.222526 
      10.546875 23.044922 C 10.714568 23.587626 10.874198 23.927519 11.082031 24.197266 C 11.185948
       24.332139 11.306743 24.45034 11.453125 24.542969 C 11.511635 24.579989 11.575789 24.608506 11.640625 
       24.634766 L 11.644531 24.636719 C 11.659471 24.642719 11.67235 24.652903 11.6875 24.658203 
       C 11.716082 24.668202 11.735202 24.669403 11.773438 24.677734 C 11.925762 24.726927 12.079549 
       24.757812 12.216797 24.757812 C 12.80196 24.757814 13.160156 24.435547 13.160156 24.435547 
       L 13.181641 24.419922 L 16.191406 21.816406 L 19.841797 25.269531 C 19.893193 25.342209 
       20.372542 26 21.429688 26 C 22.057386 26 22.555319 25.685026 22.875 25.349609 C 23.194681 
       25.014192 23.393848 24.661807 23.478516 24.21875 L 23.478516 24.216797 C 23.557706 23.798129 26.921875 
       6.5273437 26.921875 6.5273438 L 26.916016 6.5507812 C 27.014496 6.1012683 27.040303 5.6826405 26.931641 
       5.2695312 C 26.822973 4.8564222 26.536648 4.4608905 26.181641 4.2480469 C 25.826669 4.0352506 25.479353 
       3.9700339 25.154297 3.984375 z M 24.966797 6.0742188 C 24.961997 6.1034038 24.970391 6.0887279 24.962891 
       6.1230469 L 24.960938 6.1347656 L 24.958984 6.1464844 C 24.958984 6.1464844 21.636486 23.196371 21.513672 
       23.845703 C 21.522658 23.796665 21.481573 23.894167 21.439453 23.953125 C 21.379901 23.91208 21.257812 23.859375 
       21.257812 23.859375 L 21.238281 23.837891 L 16.251953 19.121094 L 12.726562 22.167969 L 13.775391 17.96875 C 13.775391 
       17.96875 20.331562 11.182109 20.726562 10.787109 C 21.044563 10.471109 21.111328 10.360953 21.111328 10.251953
        C 21.111328 10.105953 21.035234 10 20.865234 10 C 20.712234 10 20.506484 10.14875 20.396484 10.21875 C 18.963383 
        11.132295 12.671823 14.799141 9.8515625 16.439453 C 9.4033769 16.256034 6.2896636 14.981472 5.234375 14.550781 
        C 5.242365 14.547281 5.2397349 14.548522 5.2480469 14.544922 C 7.6958673 13.491784 12.47163 11.434667 16.720703 
        9.6074219 C 18.84524 8.6937992 20.838669 7.8379587 22.341797 7.1933594 C 23.821781 6.5586849 24.850125 6.1218894 24.966797 6.0742188 z"/>
    </symbol>

    <symbol viewBox="0 0 30 30" id="instagram">
      <path d="M 9.9980469 3 C 6.1390469 3 3 6.1419531 3 10.001953 L 3 20.001953 C 3 23.860953 6.1419531 27 10.001953 27 L 20.001953 27 C 23.860953
       27 27 23.858047 27 19.998047 L 27 9.9980469 C 27 6.1390469 23.858047 3 19.998047 3 L 9.9980469 3 z M 22 7 C 22.552 7 23 7.448 23 8 C 23 8.552 
       22.552 9 22 9 C 21.448 9 21 8.552 21 8 C 21 7.448 21.448 7 22 7 z M 15 9 C 18.309 9 21 11.691 21 15 C 21 18.309 18.309 21 15 21 C 11.691 21 9 
       18.309 9 15 C 9 11.691 11.691 9 15 9 z M 15 11 A 4 4 0 0 0 11 15 A 4 4 0 0 0 15 19 A 4 4 0 0 0 19 15 A 4 4 0 0 0 15 11 z"/>
    </symbol>

    <symbol viewBox="0 0 30 30" id="youtube">
        <path d="M 15 4 C 10.814 4 5.3808594 5.0488281 5.3808594 5.0488281 L 5.3671875 5.0644531 C 3.4606632 
        5.3693645 2 7.0076245 2 9 L 2 15 L 2 15.001953 L 2 21 L 2 21.001953 A 4 4 0 0 0 5.3769531 24.945312 
        L 5.3808594 24.951172 C 5.3808594 24.951172 10.814 26.001953 15 26.001953 C 19.186 26.001953 24.619141 
        24.951172 24.619141 24.951172 L 24.621094 24.949219 A 4 4 0 0 0 28 21.001953 L 28 21 L 28 15.001953 L 
        28 15 L 28 9 A 4 4 0 0 0 24.623047 5.0546875 L 24.619141 5.0488281 C 24.619141 5.0488281 19.186 4 15 4 
        z M 12 10.398438 L 20 15 L 12 19.601562 L 12 10.398438 z"/>
    </symbol>

    <symbol id="home" viewBox="0 0 32 32"><path class="cls-1" d="M30,15a1,1,0,0,1-.58-.19L16,5.23,2.58,14.81a1,1,0,
    0,1-1.16-1.62l14-10a1,1,0,0,1,1.16,0l14,10A1,1,0,0,1,30,15Z"/><path class="cls-1" d="M5,9A1,1,0,0,1,4,8V4A1,1,0
    ,0,1,5,3H9A1,1,0,0,1,9,5H6V8A1,1,0,0,1,5,9Z"/><path class="cls-1" d="M25,29H20a1,1,0,0,1-1-1V21H13v7a1,1,0,0,1-1,
    1H7a3,3,0,0,1-3-3V16a1,1,0,0,1,2,0V26a1,1,0,0,0,1,1h4V20a1,1,0,0,1,1-1h8a1,1,0,0,1,1,1v7h4a1,1,0,0,0,1-1V16a1,1,0,
    0,1,2,0V26A3,3,0,0,1,25,29Z"/>
    </symbol>

    <symbol id="gallery" viewBox="0 0 32 32"><path class="cls-1" d="M24,27H2a1,1,0,0,1-1-1V2A1,1,0,0,1,2,1H24a1,1,0,0,1,
    1,1V26A1,1,0,0,1,24,27ZM3,25H23V3H3Z"/><path class="cls-1" d="M30,31H8a1,1,0,0,1,0-2H29V7H28a1,1,0,0,1,0-2h2a1,1,0,0,
    1,1,1V30A1,1,0,0,1,30,31Z"/><path class="cls-1" d="M2,21.86a1,1,0,0,1-.7-.29,1,1,0,0,1,0-1.41L5.35,16a2.67,2.67,0,0,1,
    3.48-.29l3.59,2.6a.68.68,0,0,0,.88-.08L17,14.51a2.75,2.75,0,0,1,3.82,0l3.88,3.93a1,1,0,0,1-1.42,1.4l-3.88-3.93a.69.69,
    0,0,0-1,0l-3.71,3.75a2.68,2.68,0,0,1-3.48.3l-3.59-2.6a.67.67,0,0,0-.88.07L2.71,21.56A1,1,0,0,1,2,21.86Z"/><path class="cls-1"
     d="M13.85,12.86a4,4,0,1,1,4-4A4,4,0,0,1,13.85,12.86Zm0-6a2,2,0,1,0,2,2A2,2,0,0,0,13.85,6.86Z"/>
     </symbol>

     <symbol id="works" viewBox="0 0 32 32"><path d="M28,9H11a1,1,0,0,1,0-2H28a1,1,0,0,1,0,2Z"/><path d="M7,9H4A1,1,0,0,1,4,7H7A1,1,0,0,1,7,9Z"/><path d="M21,17H4a1,1,0,0,1,0-2H21a1,1,0,0,1,0,2Z"/><path d="M11,25H4a1,1,0,0,1,0-2h7a1,1,0,0,1,0,2Z"/><path d="M9,11a3,3,0,1,1,3-3A3,3,0,0,1,9,11ZM9,7a1,1,0,1,0,1,1A1,1,0,0,0,9,7Z"/><path d="M23,19a3,3,0,1,1,3-3A3,3,0,0,1,23,19Zm0-4a1,1,0,1,0,1,1A1,1,0,0,0,23,15Z"/><path d="M13,27a3,3,0,1,1,3-3A3,3,0,0,1,13,27Zm0-4a1,1,0,1,0,1,1A1,1,0,0,0,13,23Z"/><path d="M28,17H25a1,1,0,0,1,0-2h3a1,1,0,0,1,0,2Z"/><path d="M28,25H15a1,1,0,0,1,0-2H28a1,1,0,0,1,0,2Z"/></g></symbol>

     <symbol id="site" viewBox="0 0 128 128"><g><path d="M64,126c34.2,0,62-27.8,62-62S98.2,2,64,2S2,29.8,2,64S29.8,126,64,126z M16,88.7l25.2-0.2c2.8,10.1,7.5,19.9,13.9,28.7   C38,114.4,23.7,103.5,16,88.7z M47.6,47H79c2.3,11,2.3,22.3,0.2,33.3l-31.6,0.2C45.3,69.4,45.3,58,47.6,47z M63.3,114.9   c-6.3-8.1-10.9-17-13.7-26.4l27.5-0.2C74.2,97.7,69.6,106.7,63.3,114.9z M71.3,117.5c6.6-9,11.3-18.9,14.1-29.3l26.9-0.2   C104.5,103.7,89.3,115,71.3,117.5z M118,64c0,5.6-0.9,11-2.4,16l-28.3,0.2c2-11,1.9-22.2-0.2-33.2h28.1C117,52.3,118,58.1,118,64z    M111.8,39H85.2c-2.9-10-7.5-19.7-13.9-28.5C89,12.9,103.9,23.8,111.8,39z M76.9,39H49.7c2.9-9.2,7.4-17.9,13.6-25.9   C69.5,21.1,74,29.8,76.9,39z M55.1,10.8C48.8,19.5,44.2,29,41.4,39H16.2C23.9,24.3,38.1,13.6,55.1,10.8z M39.5,47   c-2.1,11.1-2.1,22.4-0.1,33.5l-26.7,0.2C10.9,75.4,10,69.8,10,64c0-5.9,1-11.7,2.8-17H39.5z"/></g></symbol> 

     <symbol viewBox="0 0 24 24" id="instreg">
			<path d="M11.9997 7.7643C9.65654 7.7643 7.75696 9.6607 7.75696 12C7.75696 14.3392 9.65654 16.2356 11.9997 16.2356C14.3429 16.2356 16.2425 14.3392 16.2425 12C16.2425 9.6607 14.3429 7.7643 11.9997 7.7643Z" />
            <path fill-rule="evenodd" clip-rule="evenodd" d="M5.17177 0.376693C9.67323 -0.125564 14.3268 -0.125564 18.8282 0.376693C21.3065 0.653209 23.3055 2.60263 23.5963 5.08543C24.1346 9.67952 24.1346 14.3205 23.5963 18.9145C23.3055 21.3974 21.3065 23.3469 18.8282 23.6233C14.3268 24.1256 9.67323 24.1256 5.17177 23.6233C2.69347 23.3469 0.694548 21.3974 0.403664 18.9145C-0.134555 14.3205 -0.134555 9.67952 0.403664 5.08543C0.694548 2.60263 2.69347 0.653209 5.17177 0.376693ZM18.5273 4.18035C17.8063 4.18035 17.2218 4.76385 17.2218 5.48362C17.2218 6.2034 17.8063 6.7869 18.5273 6.7869C19.2483 6.7869 19.8328 6.2034 19.8328 5.48362C19.8328 4.76385 19.2483 4.18035 18.5273 4.18035ZM5.799 12C5.799 8.58106 8.57527 5.80944 12 5.80944C15.4247 5.80944 18.2009 8.58106 18.2009 12C18.2009 15.419 15.4247 18.1906 12 18.1906C8.57527 18.1906 5.799 15.419 5.799 12Z" />
		</symbol>

		<symbol viewBox="0 0 24 24" id="linkreg">
			<path d="M2.72 0C1.21778 0 0 1.18615 0 2.64935C0 4.11254 1.21778 5.2987 2.72 5.2987C4.22221 5.2987 5.44 4.11254 5.44 2.64935C5.44 1.18615 4.22221 0 2.72 0Z" />
            <path d="M0.16 7.48052C0.0716288 7.48052 0 7.55029 0 7.63636V23.8442C0 23.9302 0.0716288 24 0.16 24H5.28C5.36837 24 5.44 23.9302 5.44 23.8442V7.63636C5.44 7.55029 5.36837 7.48052 5.28 7.48052H0.16Z"/>
            <path d="M8.48 7.48052C8.39163 7.48052 8.32 7.55029 8.32 7.63636V23.8442C8.32 23.9302 8.39163 24 8.48 24H13.6C13.6883 24 13.76 23.9302 13.76 23.8442V15.1169C13.76 14.4969 14.0128 13.9023 14.463 13.4639C14.913 13.0255 15.5235 12.7792 16.16 12.7792C16.7965 12.7792 17.407 13.0255 17.857 13.4639C18.3072 13.9023 18.56 14.4969 18.56 15.1169V23.8442C18.56 23.9302 18.6317 24 18.72 24H23.84C23.9283 24 24 23.9302 24 23.8442V13.0974C24 10.0719 21.2984 7.70492 18.2077 7.9786C17.2547 8.06299 16.3123 8.29379 15.4323 8.66112L13.76 9.3592V7.63636C13.76 7.55029 13.6883 7.48052 13.6 7.48052H8.48Z"/>
		</symbol>

        <symbol viewBox="0 0 14 24" id="fbreg">
			<path d="M10.1034 0C8.41159 0 6.78897 0.640807 5.59255 1.78143C4.39628 2.92207 3.72414 4.46909 3.72414 6.08219V9.46849H0.310345C0.138952 9.46849 0 9.60092 0 9.76438V14.2356C0 14.3991 0.138952 14.5315 0.310345 14.5315H3.72414V23.7041C3.72414 23.8676 3.86309 24 4.03448 24H8.72414C8.89559 24 9.03448 23.8676 9.03448 23.7041V14.5315H12.4785C12.621 14.5315 12.7451 14.4391 12.7796 14.3074L13.952 9.83619C14.001 9.64945 13.8528 9.46849 13.6509 9.46849H9.03448V6.08219C9.03448 5.81189 9.14717 5.55265 9.34759 5.36152C9.548 5.17039 9.82 5.06301 10.1034 5.06301H13.6897C13.8611 5.06301 14 4.93053 14 4.76712V0.29589C14 0.13248 13.8611 0 13.6897 0H10.1034Z" />
		</symbol>
  </svg>